<svg width="1600" height="500" viewBox="0 0 1600 500" fill="none" xmlns="http://www.w3.org/2000/svg">
<g clip-path="url(#clip0_42_69)">
<rect width="1600" height="500" rx="32" fill="#141618"/>
<g filter="url(#filter0_f_42_69)">
<ellipse cx="797.89" cy="556.224" rx="113.555" ry="862.197" transform="rotate(-90 797.89 556.224)" fill="#20A39E" fill-opacity="0.4"/>
</g>
<path d="M103.045 189V95.9091H125.545V133.273H162.227V95.9091H184.682V189H162.227V151.591H125.545V189H103.045ZM231.432 190.318C224.129 190.318 217.826 188.879 212.523 186C207.25 183.091 203.189 178.955 200.341 173.591C197.523 168.197 196.114 161.788 196.114 154.364C196.114 147.152 197.538 140.848 200.386 135.455C203.235 130.03 207.25 125.818 212.432 122.818C217.614 119.788 223.72 118.273 230.75 118.273C235.72 118.273 240.265 119.045 244.386 120.591C248.508 122.136 252.068 124.424 255.068 127.455C258.068 130.485 260.402 134.227 262.068 138.682C263.735 143.106 264.568 148.182 264.568 153.909V159.455H203.886V146.545H243.886C243.856 144.182 243.295 142.076 242.205 140.227C241.114 138.379 239.614 136.939 237.705 135.909C235.826 134.848 233.659 134.318 231.205 134.318C228.72 134.318 226.492 134.879 224.523 136C222.553 137.091 220.992 138.591 219.841 140.5C218.689 142.379 218.083 144.515 218.023 146.909V160.045C218.023 162.894 218.583 165.394 219.705 167.545C220.826 169.667 222.417 171.318 224.477 172.5C226.538 173.682 228.992 174.273 231.841 174.273C233.811 174.273 235.598 174 237.205 173.455C238.811 172.909 240.189 172.106 241.341 171.045C242.492 169.985 243.356 168.682 243.932 167.136L264.341 167.727C263.492 172.303 261.629 176.288 258.75 179.682C255.902 183.045 252.159 185.667 247.523 187.545C242.886 189.394 237.523 190.318 231.432 190.318ZM275.92 189V119.182H298.148V189H275.92ZM287.057 111.045C283.936 111.045 281.254 110.015 279.011 107.955C276.769 105.864 275.648 103.348 275.648 100.409C275.648 97.5 276.769 95.0151 279.011 92.9545C281.254 90.8636 283.936 89.8182 287.057 89.8182C290.208 89.8182 292.89 90.8636 295.102 92.9545C297.345 95.0151 298.466 97.5 298.466 100.409C298.466 103.348 297.345 105.864 295.102 107.955C292.89 110.015 290.208 111.045 287.057 111.045ZM325.341 189L307.159 119.182H329.477L338.886 163.909H339.477L349.568 119.182H371.341L381.705 163.591H382.295L391.432 119.182H413.75L395.523 189H371.75L360.841 148.318H360.068L349.159 189H325.341ZM442.352 190.182C437.898 190.182 433.943 189.439 430.489 187.955C427.064 186.439 424.352 184.167 422.352 181.136C420.383 178.076 419.398 174.242 419.398 169.636C419.398 165.758 420.08 162.485 421.443 159.818C422.807 157.152 424.686 154.985 427.08 153.318C429.473 151.652 432.231 150.394 435.352 149.545C438.473 148.667 441.807 148.076 445.352 147.773C449.322 147.409 452.519 147.03 454.943 146.636C457.367 146.212 459.125 145.621 460.216 144.864C461.337 144.076 461.898 142.97 461.898 141.545V141.318C461.898 138.985 461.095 137.182 459.489 135.909C457.883 134.636 455.716 134 452.989 134C450.049 134 447.686 134.636 445.898 135.909C444.11 137.182 442.973 138.939 442.489 141.182L421.989 140.455C422.595 136.212 424.155 132.424 426.67 129.091C429.216 125.727 432.701 123.091 437.125 121.182C441.58 119.242 446.928 118.273 453.17 118.273C457.625 118.273 461.731 118.803 465.489 119.864C469.246 120.894 472.519 122.409 475.307 124.409C478.095 126.379 480.246 128.803 481.761 131.682C483.307 134.561 484.08 137.848 484.08 141.545V189H463.17V179.273H462.625C461.383 181.636 459.792 183.636 457.852 185.273C455.943 186.909 453.686 188.136 451.08 188.955C448.504 189.773 445.595 190.182 442.352 190.182ZM449.216 175.636C451.61 175.636 453.761 175.152 455.67 174.182C457.61 173.212 459.155 171.879 460.307 170.182C461.458 168.455 462.034 166.455 462.034 164.182V157.545C461.398 157.879 460.625 158.182 459.716 158.455C458.837 158.727 457.867 158.985 456.807 159.227C455.746 159.47 454.655 159.682 453.534 159.864C452.413 160.045 451.337 160.212 450.307 160.364C448.216 160.697 446.428 161.212 444.943 161.909C443.489 162.606 442.367 163.515 441.58 164.636C440.822 165.727 440.443 167.03 440.443 168.545C440.443 170.848 441.261 172.606 442.898 173.818C444.564 175.03 446.67 175.636 449.216 175.636Z" fill="white"/>
<path d="M102.528 222.144H153.28V228.16H102.528V222.144ZM99.136 249.344H156.928V255.424H99.136V249.344ZM106.688 232.448L112.192 230.784C114.624 235.2 117.056 241.024 117.888 244.672L112.064 246.592C111.296 242.944 108.992 236.992 106.688 232.448ZM143.552 230.528L150.016 232.256C147.648 237.312 144.832 243.072 142.464 246.656L137.216 245.056C139.456 241.152 142.144 235.008 143.552 230.528ZM124.736 224.576H131.008V277.376H124.736V224.576ZM195.712 263.424H215.296V269.248H195.712V263.424ZM193.536 224H218.176V273.984H211.968V229.76H199.424V274.432H193.536V224ZM175.104 223.808H181.12V277.312H175.104V223.808ZM163.008 236.992H191.552V242.624H163.008V236.992ZM174.72 239.04L178.88 240.512C176 250.624 170.496 262.592 164.672 268.864C164.032 267.136 162.56 264.768 161.536 263.232C166.912 257.664 172.352 247.616 174.72 239.04ZM187.392 218.56L191.424 223.296C184.256 225.92 173.888 227.776 165.12 228.8C164.864 227.456 164.096 225.344 163.456 224C171.904 222.848 181.696 220.864 187.392 218.56ZM180.672 243.456C182.656 245.44 189.888 253.824 191.488 255.872L187.904 260.864C185.792 257.28 180.096 249.472 177.664 246.4L180.672 243.456Z" fill="white" fill-opacity="0.25"/>
<path d="M946.635 334.182C946.464 332.742 945.773 331.625 944.561 330.83C943.349 330.034 941.862 329.636 940.101 329.636C938.813 329.636 937.686 329.845 936.72 330.261C935.764 330.678 935.016 331.251 934.476 331.98C933.946 332.709 933.68 333.538 933.68 334.466C933.68 335.242 933.865 335.91 934.234 336.469C934.613 337.018 935.096 337.477 935.683 337.847C936.27 338.206 936.886 338.505 937.53 338.741C938.174 338.969 938.766 339.153 939.305 339.295L942.26 340.091C943.018 340.29 943.86 340.564 944.788 340.915C945.726 341.265 946.621 341.743 947.473 342.349C948.335 342.946 949.045 343.713 949.604 344.651C950.162 345.588 950.442 346.739 950.442 348.102C950.442 349.674 950.03 351.095 949.206 352.364C948.392 353.633 947.198 354.641 945.626 355.389C944.064 356.137 942.165 356.511 939.93 356.511C937.847 356.511 936.043 356.175 934.518 355.503C933.003 354.83 931.81 353.893 930.939 352.69C930.077 351.488 929.589 350.091 929.476 348.5H933.112C933.207 349.598 933.576 350.508 934.22 351.227C934.874 351.937 935.697 352.468 936.692 352.818C937.696 353.159 938.775 353.33 939.93 353.33C941.275 353.33 942.482 353.112 943.553 352.676C944.623 352.231 945.47 351.616 946.095 350.83C946.72 350.034 947.033 349.106 947.033 348.045C947.033 347.08 946.763 346.294 946.223 345.688C945.683 345.081 944.973 344.589 944.092 344.21C943.212 343.831 942.26 343.5 941.237 343.216L937.658 342.193C935.385 341.54 933.586 340.607 932.26 339.395C930.934 338.183 930.271 336.597 930.271 334.636C930.271 333.008 930.712 331.587 931.592 330.375C932.482 329.153 933.676 328.206 935.172 327.534C936.678 326.852 938.358 326.511 940.214 326.511C942.089 326.511 943.756 326.848 945.214 327.52C946.673 328.183 947.828 329.092 948.68 330.247C949.542 331.402 949.997 332.714 950.044 334.182H946.635ZM965.268 334.182V337.023H953.961V334.182H965.268ZM957.256 328.955H960.609V349.75C960.609 350.697 960.746 351.407 961.021 351.881C961.305 352.345 961.665 352.657 962.1 352.818C962.545 352.97 963.014 353.045 963.506 353.045C963.876 353.045 964.179 353.027 964.415 352.989C964.652 352.941 964.842 352.903 964.984 352.875L965.665 355.886C965.438 355.972 965.121 356.057 964.714 356.142C964.307 356.237 963.79 356.284 963.165 356.284C962.219 356.284 961.29 356.08 960.381 355.673C959.482 355.266 958.734 354.646 958.137 353.812C957.55 352.979 957.256 351.928 957.256 350.659V328.955ZM970.31 356V334.182H973.549V337.477H973.776C974.174 336.398 974.894 335.522 975.935 334.849C976.977 334.177 978.151 333.841 979.458 333.841C979.704 333.841 980.012 333.846 980.381 333.855C980.751 333.865 981.03 333.879 981.219 333.898V337.307C981.106 337.278 980.845 337.236 980.438 337.179C980.04 337.113 979.619 337.08 979.174 337.08C978.113 337.08 977.166 337.302 976.333 337.747C975.509 338.183 974.856 338.789 974.373 339.565C973.899 340.332 973.663 341.208 973.663 342.193V356H970.31ZM993.677 356.455C991.575 356.455 989.761 355.991 988.237 355.062C986.721 354.125 985.552 352.818 984.728 351.142C983.914 349.456 983.506 347.496 983.506 345.261C983.506 343.027 983.914 341.057 984.728 339.352C985.552 337.638 986.698 336.303 988.165 335.347C989.643 334.381 991.366 333.898 993.336 333.898C994.472 333.898 995.594 334.087 996.702 334.466C997.81 334.845 998.819 335.46 999.728 336.312C1000.64 337.155 1001.36 338.273 1001.9 339.665C1002.44 341.057 1002.71 342.771 1002.71 344.807V346.227H985.893V343.33H999.302C999.302 342.098 999.056 341 998.563 340.034C998.08 339.068 997.389 338.306 996.489 337.747C995.599 337.188 994.548 336.909 993.336 336.909C992.001 336.909 990.845 337.241 989.87 337.903C988.904 338.557 988.161 339.409 987.64 340.46C987.119 341.511 986.859 342.638 986.859 343.841V345.773C986.859 347.42 987.143 348.817 987.711 349.963C988.289 351.099 989.089 351.966 990.112 352.562C991.134 353.15 992.323 353.443 993.677 353.443C994.558 353.443 995.353 353.32 996.063 353.074C996.783 352.818 997.403 352.439 997.924 351.938C998.445 351.426 998.847 350.792 999.131 350.034L1002.37 350.943C1002.03 352.042 1001.46 353.008 1000.65 353.841C999.846 354.665 998.852 355.309 997.668 355.773C996.485 356.227 995.154 356.455 993.677 356.455ZM1014.23 356.511C1012.85 356.511 1011.59 356.251 1010.47 355.73C1009.34 355.2 1008.44 354.438 1007.78 353.443C1007.12 352.439 1006.79 351.227 1006.79 349.807C1006.79 348.557 1007.03 347.544 1007.53 346.767C1008.02 345.981 1008.68 345.366 1009.5 344.92C1010.32 344.475 1011.23 344.144 1012.23 343.926C1013.23 343.699 1014.24 343.519 1015.25 343.386C1016.58 343.216 1017.65 343.088 1018.48 343.003C1019.31 342.908 1019.92 342.752 1020.3 342.534C1020.68 342.316 1020.88 341.937 1020.88 341.398V341.284C1020.88 339.883 1020.5 338.794 1019.73 338.017C1018.97 337.241 1017.82 336.852 1016.28 336.852C1014.68 336.852 1013.42 337.203 1012.51 337.903C1011.6 338.604 1010.96 339.352 1010.59 340.148L1007.41 339.011C1007.98 337.686 1008.74 336.653 1009.69 335.915C1010.64 335.167 1011.68 334.646 1012.81 334.352C1013.95 334.049 1015.06 333.898 1016.16 333.898C1016.86 333.898 1017.67 333.983 1018.58 334.153C1019.5 334.314 1020.38 334.651 1021.23 335.162C1022.1 335.673 1022.81 336.445 1023.38 337.477C1023.95 338.509 1024.23 339.892 1024.23 341.625V356H1020.88V353.045H1020.71C1020.48 353.519 1020.1 354.026 1019.57 354.565C1019.04 355.105 1018.34 355.564 1017.46 355.943C1016.57 356.322 1015.5 356.511 1014.23 356.511ZM1014.74 353.5C1016.07 353.5 1017.19 353.24 1018.09 352.719C1019.01 352.198 1019.7 351.526 1020.17 350.702C1020.64 349.878 1020.88 349.011 1020.88 348.102V345.034C1020.74 345.205 1020.42 345.361 1019.94 345.503C1019.47 345.635 1018.92 345.754 1018.29 345.858C1017.68 345.953 1017.08 346.038 1016.49 346.114C1015.91 346.18 1015.44 346.237 1015.08 346.284C1014.21 346.398 1013.4 346.582 1012.64 346.838C1011.89 347.084 1011.29 347.458 1010.82 347.96C1010.37 348.453 1010.14 349.125 1010.14 349.977C1010.14 351.142 1010.57 352.023 1011.43 352.619C1012.3 353.206 1013.41 353.5 1014.74 353.5ZM1030.35 356V334.182H1033.59V337.591H1033.87C1034.33 336.426 1035.06 335.522 1036.07 334.878C1037.09 334.224 1038.3 333.898 1039.72 333.898C1041.16 333.898 1042.36 334.224 1043.32 334.878C1044.28 335.522 1045.04 336.426 1045.58 337.591H1045.8C1046.36 336.464 1047.2 335.569 1048.32 334.906C1049.44 334.234 1050.78 333.898 1052.34 333.898C1054.29 333.898 1055.88 334.509 1057.12 335.73C1058.37 336.942 1058.99 338.831 1058.99 341.398V356H1055.63V341.398C1055.63 339.788 1055.19 338.637 1054.31 337.946C1053.43 337.255 1052.39 336.909 1051.2 336.909C1049.67 336.909 1048.48 337.373 1047.64 338.301C1046.79 339.22 1046.37 340.384 1046.37 341.795V356H1042.96V341.057C1042.96 339.816 1042.56 338.817 1041.76 338.06C1040.95 337.293 1039.91 336.909 1038.64 336.909C1037.77 336.909 1036.96 337.141 1036.2 337.605C1035.45 338.069 1034.85 338.713 1034.38 339.537C1033.93 340.351 1033.7 341.294 1033.7 342.364V356H1030.35ZM1068.47 326.909V356H1065.12V326.909H1068.47ZM1074.61 356V334.182H1077.96V356H1074.61ZM1076.31 330.545C1075.66 330.545 1075.09 330.323 1074.62 329.878C1074.16 329.433 1073.93 328.898 1073.93 328.273C1073.93 327.648 1074.16 327.113 1074.62 326.668C1075.09 326.223 1075.66 326 1076.31 326C1076.97 326 1077.52 326.223 1077.99 326.668C1078.46 327.113 1078.7 327.648 1078.7 328.273C1078.7 328.898 1078.46 329.433 1077.99 329.878C1077.52 330.323 1076.97 330.545 1076.31 330.545ZM1087.45 342.875V356H1084.1V334.182H1087.34V337.591H1087.62C1088.13 336.483 1088.91 335.593 1089.95 334.92C1090.99 334.239 1092.34 333.898 1093.99 333.898C1095.46 333.898 1096.76 334.201 1097.86 334.807C1098.97 335.403 1099.83 336.312 1100.45 337.534C1101.06 338.746 1101.37 340.28 1101.37 342.136V356H1098.02V342.364C1098.02 340.65 1097.57 339.314 1096.68 338.358C1095.79 337.392 1094.57 336.909 1093.02 336.909C1091.95 336.909 1090.99 337.141 1090.15 337.605C1089.32 338.069 1088.66 338.746 1088.18 339.636C1087.69 340.527 1087.45 341.606 1087.45 342.875ZM1116.65 356.455C1114.54 356.455 1112.73 355.991 1111.21 355.062C1109.69 354.125 1108.52 352.818 1107.7 351.142C1106.88 349.456 1106.48 347.496 1106.48 345.261C1106.48 343.027 1106.88 341.057 1107.7 339.352C1108.52 337.638 1109.67 336.303 1111.13 335.347C1112.61 334.381 1114.33 333.898 1116.3 333.898C1117.44 333.898 1118.56 334.087 1119.67 334.466C1120.78 334.845 1121.79 335.46 1122.7 336.312C1123.61 337.155 1124.33 338.273 1124.87 339.665C1125.41 341.057 1125.68 342.771 1125.68 344.807V346.227H1108.86V343.33H1122.27C1122.27 342.098 1122.02 341 1121.53 340.034C1121.05 339.068 1120.36 338.306 1119.46 337.747C1118.57 337.188 1117.52 336.909 1116.3 336.909C1114.97 336.909 1113.81 337.241 1112.84 337.903C1111.87 338.557 1111.13 339.409 1110.61 340.46C1110.09 341.511 1109.83 342.638 1109.83 343.841V345.773C1109.83 347.42 1110.11 348.817 1110.68 349.963C1111.26 351.099 1112.06 351.966 1113.08 352.562C1114.1 353.15 1115.29 353.443 1116.65 353.443C1117.53 353.443 1118.32 353.32 1119.03 353.074C1119.75 352.818 1120.37 352.439 1120.89 351.938C1121.41 351.426 1121.82 350.792 1122.1 350.034L1125.34 350.943C1125 352.042 1124.42 353.008 1123.62 353.841C1122.82 354.665 1121.82 355.309 1120.64 355.773C1119.45 356.227 1118.12 356.455 1116.65 356.455ZM1139.02 356.455C1137.2 356.455 1135.59 355.995 1134.2 355.077C1132.81 354.149 1131.72 352.842 1130.94 351.156C1130.15 349.461 1129.76 347.458 1129.76 345.148C1129.76 342.856 1130.15 340.867 1130.94 339.182C1131.72 337.496 1132.82 336.194 1134.22 335.276C1135.62 334.357 1137.24 333.898 1139.07 333.898C1140.5 333.898 1141.62 334.134 1142.44 334.608C1143.27 335.072 1143.91 335.602 1144.34 336.199C1144.79 336.786 1145.14 337.269 1145.38 337.648H1145.67V326.909H1149.02V356H1145.78V352.648H1145.38C1145.14 353.045 1144.78 353.547 1144.33 354.153C1143.88 354.75 1143.23 355.285 1142.38 355.759C1141.54 356.223 1140.42 356.455 1139.02 356.455ZM1139.47 353.443C1140.82 353.443 1141.95 353.093 1142.88 352.392C1143.81 351.682 1144.51 350.702 1145 349.452C1145.48 348.192 1145.72 346.739 1145.72 345.091C1145.72 343.462 1145.49 342.037 1145.01 340.815C1144.54 339.584 1143.84 338.628 1142.91 337.946C1141.98 337.255 1140.84 336.909 1139.47 336.909C1138.05 336.909 1136.87 337.274 1135.92 338.003C1134.98 338.723 1134.28 339.703 1133.8 340.943C1133.34 342.174 1133.11 343.557 1133.11 345.091C1133.11 346.644 1133.35 348.055 1133.82 349.324C1134.3 350.583 1135.01 351.587 1135.95 352.335C1136.9 353.074 1138.07 353.443 1139.47 353.443ZM1171.82 356L1165.17 334.182H1168.69L1173.41 350.886H1173.63L1178.29 334.182H1181.87L1186.48 350.83H1186.7L1191.42 334.182H1194.94L1188.29 356H1185L1180.23 339.239H1179.88L1175.11 356H1171.82ZM1199.37 356V334.182H1202.73V356H1199.37ZM1201.08 330.545C1200.42 330.545 1199.86 330.323 1199.39 329.878C1198.92 329.433 1198.69 328.898 1198.69 328.273C1198.69 327.648 1198.92 327.113 1199.39 326.668C1199.86 326.223 1200.42 326 1201.08 326C1201.73 326 1202.29 326.223 1202.75 326.668C1203.23 327.113 1203.46 327.648 1203.46 328.273C1203.46 328.898 1203.23 329.433 1202.75 329.878C1202.29 330.323 1201.73 330.545 1201.08 330.545ZM1217.1 356.455C1215.29 356.455 1213.68 355.995 1212.29 355.077C1210.9 354.149 1209.81 352.842 1209.02 351.156C1208.24 349.461 1207.84 347.458 1207.84 345.148C1207.84 342.856 1208.24 340.867 1209.02 339.182C1209.81 337.496 1210.9 336.194 1212.3 335.276C1213.7 334.357 1215.32 333.898 1217.16 333.898C1218.58 333.898 1219.7 334.134 1220.53 334.608C1221.36 335.072 1221.99 335.602 1222.43 336.199C1222.88 336.786 1223.22 337.269 1223.47 337.648H1223.75V326.909H1227.1V356H1223.87V352.648H1223.47C1223.22 353.045 1222.87 353.547 1222.42 354.153C1221.96 354.75 1221.31 355.285 1220.47 355.759C1219.63 356.223 1218.51 356.455 1217.1 356.455ZM1217.56 353.443C1218.9 353.443 1220.04 353.093 1220.97 352.392C1221.9 351.682 1222.6 350.702 1223.08 349.452C1223.57 348.192 1223.81 346.739 1223.81 345.091C1223.81 343.462 1223.57 342.037 1223.1 340.815C1222.62 339.584 1221.92 338.628 1221 337.946C1220.07 337.255 1218.92 336.909 1217.56 336.909C1216.14 336.909 1214.95 337.274 1214.01 338.003C1213.07 338.723 1212.36 339.703 1211.89 340.943C1211.43 342.174 1211.19 343.557 1211.19 345.091C1211.19 346.644 1211.43 348.055 1211.9 349.324C1212.39 350.583 1213.1 351.587 1214.04 352.335C1214.98 353.074 1216.16 353.443 1217.56 353.443ZM1242.52 364.636C1240.9 364.636 1239.5 364.428 1238.34 364.011C1237.17 363.604 1236.2 363.064 1235.43 362.392C1234.66 361.729 1234.05 361.019 1233.6 360.261L1236.27 358.386C1236.57 358.784 1236.95 359.239 1237.42 359.75C1237.88 360.271 1238.51 360.721 1239.32 361.099C1240.13 361.488 1241.2 361.682 1242.52 361.682C1244.28 361.682 1245.73 361.256 1246.88 360.403C1248.02 359.551 1248.6 358.216 1248.6 356.398V351.966H1248.31C1248.06 352.364 1247.71 352.856 1247.26 353.443C1246.81 354.021 1246.17 354.537 1245.33 354.991C1244.49 355.437 1243.37 355.659 1241.95 355.659C1240.19 355.659 1238.6 355.242 1237.2 354.409C1235.81 353.576 1234.71 352.364 1233.89 350.773C1233.09 349.182 1232.69 347.25 1232.69 344.977C1232.69 342.742 1233.08 340.796 1233.87 339.139C1234.65 337.473 1235.74 336.185 1237.15 335.276C1238.55 334.357 1240.17 333.898 1242 333.898C1243.42 333.898 1244.55 334.134 1245.38 334.608C1246.23 335.072 1246.87 335.602 1247.32 336.199C1247.77 336.786 1248.12 337.269 1248.37 337.648H1248.71V334.182H1251.95V356.625C1251.95 358.5 1251.52 360.025 1250.67 361.199C1249.83 362.383 1248.69 363.249 1247.26 363.798C1245.84 364.357 1244.26 364.636 1242.52 364.636ZM1242.4 352.648C1243.75 352.648 1244.88 352.34 1245.81 351.724C1246.74 351.109 1247.44 350.223 1247.93 349.068C1248.41 347.913 1248.65 346.53 1248.65 344.92C1248.65 343.348 1248.42 341.961 1247.94 340.759C1247.47 339.556 1246.77 338.614 1245.84 337.932C1244.91 337.25 1243.77 336.909 1242.4 336.909C1240.98 336.909 1239.8 337.269 1238.85 337.989C1237.91 338.708 1237.21 339.674 1236.73 340.886C1236.27 342.098 1236.04 343.443 1236.04 344.92C1236.04 346.436 1236.28 347.776 1236.75 348.94C1237.23 350.096 1237.94 351.005 1238.88 351.668C1239.83 352.321 1241 352.648 1242.4 352.648ZM1267.23 356.455C1265.13 356.455 1263.32 355.991 1261.79 355.062C1260.28 354.125 1259.11 352.818 1258.28 351.142C1257.47 349.456 1257.06 347.496 1257.06 345.261C1257.06 343.027 1257.47 341.057 1258.28 339.352C1259.11 337.638 1260.25 336.303 1261.72 335.347C1263.2 334.381 1264.92 333.898 1266.89 333.898C1268.03 333.898 1269.15 334.087 1270.26 334.466C1271.37 334.845 1272.37 335.46 1273.28 336.312C1274.19 337.155 1274.92 338.273 1275.46 339.665C1276 341.057 1276.27 342.771 1276.27 344.807V346.227H1259.45V343.33H1272.86C1272.86 342.098 1272.61 341 1272.12 340.034C1271.63 339.068 1270.94 338.306 1270.04 337.747C1269.15 337.188 1268.1 336.909 1266.89 336.909C1265.56 336.909 1264.4 337.241 1263.42 337.903C1262.46 338.557 1261.72 339.409 1261.19 340.46C1260.67 341.511 1260.41 342.638 1260.41 343.841V345.773C1260.41 347.42 1260.7 348.817 1261.27 349.963C1261.84 351.099 1262.64 351.966 1263.67 352.562C1264.69 353.15 1265.88 353.443 1267.23 353.443C1268.11 353.443 1268.91 353.32 1269.62 353.074C1270.34 352.818 1270.96 352.439 1271.48 351.938C1272 351.426 1272.4 350.792 1272.69 350.034L1275.92 350.943C1275.58 352.042 1275.01 353.008 1274.21 353.841C1273.4 354.665 1272.41 355.309 1271.22 355.773C1270.04 356.227 1268.71 356.455 1267.23 356.455ZM1290.85 334.182V337.023H1279.55V334.182H1290.85ZM1282.84 328.955H1286.19V349.75C1286.19 350.697 1286.33 351.407 1286.61 351.881C1286.89 352.345 1287.25 352.657 1287.69 352.818C1288.13 352.97 1288.6 353.045 1289.09 353.045C1289.46 353.045 1289.76 353.027 1290 352.989C1290.24 352.941 1290.43 352.903 1290.57 352.875L1291.25 355.886C1291.02 355.972 1290.71 356.057 1290.3 356.142C1289.89 356.237 1289.38 356.284 1288.75 356.284C1287.8 356.284 1286.88 356.08 1285.97 355.673C1285.07 355.266 1284.32 354.646 1283.72 353.812C1283.14 352.979 1282.84 351.928 1282.84 350.659V328.955ZM1322.6 339.068L1319.59 339.92C1319.4 339.419 1319.12 338.931 1318.75 338.457C1318.39 337.974 1317.9 337.577 1317.27 337.264C1316.65 336.952 1315.85 336.795 1314.87 336.795C1313.54 336.795 1312.43 337.103 1311.54 337.719C1310.65 338.325 1310.21 339.097 1310.21 340.034C1310.21 340.867 1310.52 341.526 1311.12 342.009C1311.73 342.491 1312.68 342.894 1313.96 343.216L1317.2 344.011C1319.15 344.485 1320.61 345.209 1321.56 346.185C1322.52 347.151 1323 348.396 1323 349.92C1323 351.17 1322.64 352.288 1321.92 353.273C1321.21 354.258 1320.21 355.034 1318.94 355.602C1317.66 356.17 1316.17 356.455 1314.48 356.455C1312.25 356.455 1310.41 355.972 1308.95 355.006C1307.49 354.04 1306.57 352.629 1306.18 350.773L1309.36 349.977C1309.67 351.152 1310.24 352.032 1311.08 352.619C1311.93 353.206 1313.05 353.5 1314.42 353.5C1315.98 353.5 1317.22 353.169 1318.14 352.506C1319.07 351.833 1319.53 351.028 1319.53 350.091C1319.53 349.333 1319.27 348.699 1318.74 348.188C1318.21 347.667 1317.39 347.278 1316.29 347.023L1312.66 346.17C1310.66 345.697 1309.19 344.963 1308.25 343.969C1307.33 342.965 1306.86 341.71 1306.86 340.205C1306.86 338.973 1307.21 337.884 1307.9 336.938C1308.6 335.991 1309.55 335.247 1310.75 334.707C1311.97 334.168 1313.34 333.898 1314.87 333.898C1317.03 333.898 1318.73 334.371 1319.96 335.318C1321.2 336.265 1322.08 337.515 1322.6 339.068ZM1330.2 364.182C1329.64 364.182 1329.13 364.134 1328.68 364.04C1328.24 363.955 1327.93 363.869 1327.76 363.784L1328.61 360.83C1329.43 361.038 1330.15 361.114 1330.77 361.057C1331.4 361 1331.95 360.721 1332.43 360.219C1332.93 359.726 1333.38 358.926 1333.78 357.818L1334.41 356.114L1326.34 334.182H1329.98L1336 351.568H1336.23L1342.25 334.182H1345.89L1336.62 359.182C1336.21 360.309 1335.69 361.241 1335.08 361.98C1334.46 362.728 1333.75 363.282 1332.93 363.642C1332.13 364.002 1331.22 364.182 1330.2 364.182ZM1365.76 339.068L1362.75 339.92C1362.56 339.419 1362.28 338.931 1361.92 338.457C1361.56 337.974 1361.06 337.577 1360.44 337.264C1359.81 336.952 1359.01 336.795 1358.04 336.795C1356.7 336.795 1355.59 337.103 1354.7 337.719C1353.82 338.325 1353.38 339.097 1353.38 340.034C1353.38 340.867 1353.68 341.526 1354.29 342.009C1354.89 342.491 1355.84 342.894 1357.13 343.216L1360.37 344.011C1362.32 344.485 1363.77 345.209 1364.73 346.185C1365.68 347.151 1366.16 348.396 1366.16 349.92C1366.16 351.17 1365.8 352.288 1365.08 353.273C1364.37 354.258 1363.38 355.034 1362.1 355.602C1360.82 356.17 1359.33 356.455 1357.64 356.455C1355.41 356.455 1353.57 355.972 1352.11 355.006C1350.66 354.04 1349.73 352.629 1349.34 350.773L1352.53 349.977C1352.83 351.152 1353.4 352.032 1354.25 352.619C1355.1 353.206 1356.21 353.5 1357.58 353.5C1359.15 353.5 1360.39 353.169 1361.3 352.506C1362.23 351.833 1362.7 351.028 1362.7 350.091C1362.7 349.333 1362.43 348.699 1361.9 348.188C1361.37 347.667 1360.56 347.278 1359.46 347.023L1355.82 346.17C1353.82 345.697 1352.36 344.963 1351.42 343.969C1350.49 342.965 1350.03 341.71 1350.03 340.205C1350.03 338.973 1350.37 337.884 1351.06 336.938C1351.76 335.991 1352.72 335.247 1353.92 334.707C1355.13 334.168 1356.5 333.898 1358.04 333.898C1360.2 333.898 1361.89 334.371 1363.12 335.318C1364.36 336.265 1365.24 337.515 1365.76 339.068ZM1380.7 334.182V337.023H1369.39V334.182H1380.7ZM1372.69 328.955H1376.04V349.75C1376.04 350.697 1376.18 351.407 1376.45 351.881C1376.73 352.345 1377.09 352.657 1377.53 352.818C1377.97 352.97 1378.44 353.045 1378.94 353.045C1379.31 353.045 1379.61 353.027 1379.85 352.989C1380.08 352.941 1380.27 352.903 1380.41 352.875L1381.1 355.886C1380.87 355.972 1380.55 356.057 1380.14 356.142C1379.74 356.237 1379.22 356.284 1378.6 356.284C1377.65 356.284 1376.72 356.08 1375.81 355.673C1374.91 355.266 1374.16 354.646 1373.57 353.812C1372.98 352.979 1372.69 351.928 1372.69 350.659V328.955ZM1394.65 356.455C1392.55 356.455 1390.74 355.991 1389.21 355.062C1387.7 354.125 1386.53 352.818 1385.7 351.142C1384.89 349.456 1384.48 347.496 1384.48 345.261C1384.48 343.027 1384.89 341.057 1385.7 339.352C1386.53 337.638 1387.67 336.303 1389.14 335.347C1390.62 334.381 1392.34 333.898 1394.31 333.898C1395.45 333.898 1396.57 334.087 1397.68 334.466C1398.79 334.845 1399.8 335.46 1400.7 336.312C1401.61 337.155 1402.34 338.273 1402.88 339.665C1403.42 341.057 1403.69 342.771 1403.69 344.807V346.227H1386.87V343.33H1400.28C1400.28 342.098 1400.03 341 1399.54 340.034C1399.06 339.068 1398.37 338.306 1397.47 337.747C1396.58 337.188 1395.52 336.909 1394.31 336.909C1392.98 336.909 1391.82 337.241 1390.85 337.903C1389.88 338.557 1389.14 339.409 1388.62 340.46C1388.1 341.511 1387.84 342.638 1387.84 343.841V345.773C1387.84 347.42 1388.12 348.817 1388.69 349.963C1389.27 351.099 1390.07 351.966 1391.09 352.562C1392.11 353.15 1393.3 353.443 1394.65 353.443C1395.53 353.443 1396.33 353.32 1397.04 353.074C1397.76 352.818 1398.38 352.439 1398.9 351.938C1399.42 351.426 1399.82 350.792 1400.11 350.034L1403.35 350.943C1403.01 352.042 1402.43 353.008 1401.63 353.841C1400.82 354.665 1399.83 355.309 1398.64 355.773C1397.46 356.227 1396.13 356.455 1394.65 356.455ZM1408.79 356V334.182H1412.03V337.591H1412.31C1412.76 336.426 1413.5 335.522 1414.51 334.878C1415.52 334.224 1416.74 333.898 1418.16 333.898C1419.6 333.898 1420.8 334.224 1421.76 334.878C1422.72 335.522 1423.47 336.426 1424.01 337.591H1424.24C1424.8 336.464 1425.64 335.569 1426.76 334.906C1427.87 334.234 1429.21 333.898 1430.78 333.898C1432.73 333.898 1434.32 334.509 1435.56 335.73C1436.8 336.942 1437.42 338.831 1437.42 341.398V356H1434.07V341.398C1434.07 339.788 1433.63 338.637 1432.75 337.946C1431.87 337.255 1430.83 336.909 1429.64 336.909C1428.11 336.909 1426.92 337.373 1426.07 338.301C1425.23 339.22 1424.81 340.384 1424.81 341.795V356H1421.4V341.057C1421.4 339.816 1421 338.817 1420.19 338.06C1419.39 337.293 1418.35 336.909 1417.08 336.909C1416.21 336.909 1415.4 337.141 1414.64 337.605C1413.89 338.069 1413.29 338.713 1412.82 339.537C1412.37 340.351 1412.14 341.294 1412.14 342.364V356H1408.79ZM1464.52 334.182V337.023H1452.76V334.182H1464.52ZM1456.28 356V331.17C1456.28 329.92 1456.57 328.879 1457.16 328.045C1457.75 327.212 1458.51 326.587 1459.45 326.17C1460.38 325.754 1461.37 325.545 1462.42 325.545C1463.24 325.545 1463.91 325.612 1464.43 325.744C1464.95 325.877 1465.34 326 1465.6 326.114L1464.63 329.011C1464.46 328.955 1464.22 328.884 1463.92 328.798C1463.63 328.713 1463.24 328.67 1462.76 328.67C1461.65 328.67 1460.85 328.95 1460.36 329.509C1459.87 330.067 1459.63 330.886 1459.63 331.966V356H1456.28ZM1477.18 356.455C1475.21 356.455 1473.48 355.986 1472 355.048C1470.52 354.111 1469.36 352.799 1468.53 351.114C1467.71 349.428 1467.3 347.458 1467.3 345.205C1467.3 342.932 1467.71 340.948 1468.53 339.253C1469.36 337.558 1470.52 336.241 1472 335.304C1473.48 334.366 1475.21 333.898 1477.18 333.898C1479.15 333.898 1480.88 334.366 1482.35 335.304C1483.84 336.241 1484.99 337.558 1485.82 339.253C1486.65 340.948 1487.07 342.932 1487.07 345.205C1487.07 347.458 1486.65 349.428 1485.82 351.114C1484.99 352.799 1483.84 354.111 1482.35 355.048C1480.88 355.986 1479.15 356.455 1477.18 356.455ZM1477.18 353.443C1478.68 353.443 1479.91 353.06 1480.88 352.293C1481.84 351.526 1482.56 350.517 1483.02 349.267C1483.48 348.017 1483.72 346.663 1483.72 345.205C1483.72 343.746 1483.48 342.387 1483.02 341.128C1482.56 339.868 1481.84 338.85 1480.88 338.074C1479.91 337.297 1478.68 336.909 1477.18 336.909C1475.69 336.909 1474.45 337.297 1473.49 338.074C1472.52 338.85 1471.81 339.868 1471.34 341.128C1470.88 342.387 1470.65 343.746 1470.65 345.205C1470.65 346.663 1470.88 348.017 1471.34 349.267C1471.81 350.517 1472.52 351.526 1473.49 352.293C1474.45 353.06 1475.69 353.443 1477.18 353.443ZM1492.19 356V334.182H1495.42V337.477H1495.65C1496.05 336.398 1496.77 335.522 1497.81 334.849C1498.85 334.177 1500.03 333.841 1501.33 333.841C1501.58 333.841 1501.89 333.846 1502.26 333.855C1502.63 333.865 1502.91 333.879 1503.09 333.898V337.307C1502.98 337.278 1502.72 337.236 1502.31 337.179C1501.92 337.113 1501.49 337.08 1501.05 337.08C1499.99 337.08 1499.04 337.302 1498.21 337.747C1497.38 338.183 1496.73 338.789 1496.25 339.565C1495.77 340.332 1495.54 341.208 1495.54 342.193V356H1492.19ZM680.232 404V382.182H683.585V404H680.232ZM681.937 378.545C681.283 378.545 680.72 378.323 680.246 377.878C679.782 377.433 679.55 376.898 679.55 376.273C679.55 375.648 679.782 375.113 680.246 374.668C680.72 374.223 681.283 374 681.937 374C682.59 374 683.149 374.223 683.613 374.668C684.086 375.113 684.323 375.648 684.323 376.273C684.323 376.898 684.086 377.433 683.613 377.878C683.149 378.323 682.59 378.545 681.937 378.545ZM693.077 390.875V404H689.724V382.182H692.963V385.591H693.247C693.759 384.483 694.535 383.593 695.577 382.92C696.618 382.239 697.963 381.898 699.611 381.898C701.088 381.898 702.381 382.201 703.489 382.807C704.597 383.403 705.458 384.312 706.074 385.534C706.689 386.746 706.997 388.28 706.997 390.136V404H703.645V390.364C703.645 388.65 703.2 387.314 702.31 386.358C701.42 385.392 700.198 384.909 698.645 384.909C697.575 384.909 696.618 385.141 695.776 385.605C694.942 386.069 694.284 386.746 693.801 387.636C693.318 388.527 693.077 389.606 693.077 390.875ZM722.612 382.182V385.023H711.305V382.182H722.612ZM714.6 376.955H717.952V397.75C717.952 398.697 718.09 399.407 718.364 399.881C718.648 400.345 719.008 400.657 719.444 400.818C719.889 400.97 720.358 401.045 720.85 401.045C721.219 401.045 721.522 401.027 721.759 400.989C721.996 400.941 722.185 400.903 722.327 400.875L723.009 403.886C722.782 403.972 722.465 404.057 722.058 404.142C721.65 404.237 721.134 404.284 720.509 404.284C719.562 404.284 718.634 404.08 717.725 403.673C716.826 403.266 716.077 402.646 715.481 401.812C714.894 400.979 714.6 399.928 714.6 398.659V376.955ZM736.567 404.455C734.465 404.455 732.652 403.991 731.127 403.062C729.612 402.125 728.442 400.818 727.619 399.142C726.804 397.456 726.397 395.496 726.397 393.261C726.397 391.027 726.804 389.057 727.619 387.352C728.442 385.638 729.588 384.303 731.056 383.347C732.533 382.381 734.257 381.898 736.227 381.898C737.363 381.898 738.485 382.087 739.593 382.466C740.701 382.845 741.71 383.46 742.619 384.312C743.528 385.155 744.252 386.273 744.792 387.665C745.332 389.057 745.602 390.771 745.602 392.807V394.227H728.783V391.33H742.192C742.192 390.098 741.946 389 741.454 388.034C740.971 387.068 740.28 386.306 739.38 385.747C738.49 385.188 737.439 384.909 736.227 384.909C734.891 384.909 733.736 385.241 732.761 385.903C731.795 386.557 731.051 387.409 730.531 388.46C730.01 389.511 729.749 390.638 729.749 391.841V393.773C729.749 395.42 730.033 396.817 730.602 397.963C731.179 399.099 731.979 399.966 733.002 400.562C734.025 401.15 735.213 401.443 736.567 401.443C737.448 401.443 738.244 401.32 738.954 401.074C739.674 400.818 740.294 400.439 740.815 399.938C741.335 399.426 741.738 398.792 742.022 398.034L745.261 398.943C744.92 400.042 744.347 401.008 743.542 401.841C742.737 402.665 741.743 403.309 740.559 403.773C739.375 404.227 738.045 404.455 736.567 404.455ZM750.701 404V382.182H753.94V385.477H754.167C754.565 384.398 755.284 383.522 756.326 382.849C757.368 382.177 758.542 381.841 759.849 381.841C760.095 381.841 760.403 381.846 760.772 381.855C761.141 381.865 761.421 381.879 761.61 381.898V385.307C761.496 385.278 761.236 385.236 760.829 385.179C760.431 385.113 760.01 385.08 759.565 385.08C758.504 385.08 757.557 385.302 756.724 385.747C755.9 386.183 755.246 386.789 754.763 387.565C754.29 388.332 754.053 389.208 754.053 390.193V404H750.701ZM772.004 404.511C770.622 404.511 769.367 404.251 768.24 403.73C767.113 403.2 766.218 402.438 765.555 401.443C764.893 400.439 764.561 399.227 764.561 397.807C764.561 396.557 764.807 395.544 765.3 394.767C765.792 393.981 766.45 393.366 767.274 392.92C768.098 392.475 769.007 392.144 770.001 391.926C771.005 391.699 772.014 391.519 773.027 391.386C774.353 391.216 775.428 391.088 776.251 391.003C777.085 390.908 777.691 390.752 778.07 390.534C778.458 390.316 778.652 389.937 778.652 389.398V389.284C778.652 387.883 778.268 386.794 777.501 386.017C776.744 385.241 775.593 384.852 774.05 384.852C772.449 384.852 771.195 385.203 770.286 385.903C769.376 386.604 768.737 387.352 768.368 388.148L765.186 387.011C765.754 385.686 766.512 384.653 767.459 383.915C768.415 383.167 769.457 382.646 770.584 382.352C771.72 382.049 772.838 381.898 773.936 381.898C774.637 381.898 775.442 381.983 776.351 382.153C777.269 382.314 778.155 382.651 779.007 383.162C779.869 383.673 780.584 384.445 781.152 385.477C781.72 386.509 782.004 387.892 782.004 389.625V404H778.652V401.045H778.482C778.254 401.519 777.875 402.026 777.345 402.565C776.815 403.105 776.109 403.564 775.229 403.943C774.348 404.322 773.273 404.511 772.004 404.511ZM772.516 401.5C773.841 401.5 774.959 401.24 775.868 400.719C776.786 400.198 777.478 399.526 777.942 398.702C778.415 397.878 778.652 397.011 778.652 396.102V393.034C778.51 393.205 778.197 393.361 777.714 393.503C777.241 393.635 776.692 393.754 776.067 393.858C775.451 393.953 774.85 394.038 774.263 394.114C773.685 394.18 773.216 394.237 772.857 394.284C771.985 394.398 771.171 394.582 770.413 394.838C769.665 395.084 769.059 395.458 768.595 395.96C768.141 396.453 767.913 397.125 767.913 397.977C767.913 399.142 768.344 400.023 769.206 400.619C770.077 401.206 771.18 401.5 772.516 401.5ZM796.987 404.455C794.941 404.455 793.18 403.972 791.702 403.006C790.225 402.04 789.089 400.709 788.293 399.014C787.498 397.319 787.1 395.383 787.1 393.205C787.1 390.989 787.507 389.033 788.322 387.338C789.146 385.634 790.291 384.303 791.759 383.347C793.237 382.381 794.96 381.898 796.93 381.898C798.464 381.898 799.846 382.182 801.077 382.75C802.308 383.318 803.317 384.114 804.103 385.136C804.889 386.159 805.377 387.352 805.566 388.716H802.214C801.958 387.722 801.39 386.841 800.509 386.074C799.638 385.297 798.464 384.909 796.987 384.909C795.68 384.909 794.534 385.25 793.549 385.932C792.574 386.604 791.811 387.556 791.262 388.787C790.722 390.009 790.452 391.443 790.452 393.091C790.452 394.777 790.718 396.244 791.248 397.494C791.788 398.744 792.545 399.715 793.521 400.406C794.505 401.098 795.661 401.443 796.987 401.443C797.858 401.443 798.648 401.292 799.359 400.989C800.069 400.686 800.67 400.25 801.163 399.682C801.655 399.114 802.005 398.432 802.214 397.636H805.566C805.377 398.924 804.908 400.084 804.16 401.116C803.421 402.139 802.441 402.954 801.219 403.56C800.007 404.156 798.596 404.455 796.987 404.455ZM819.955 382.182V385.023H808.648V382.182H819.955ZM811.944 376.955H815.296V397.75C815.296 398.697 815.433 399.407 815.708 399.881C815.992 400.345 816.352 400.657 816.788 400.818C817.233 400.97 817.701 401.045 818.194 401.045C818.563 401.045 818.866 401.027 819.103 400.989C819.34 400.941 819.529 400.903 819.671 400.875L820.353 403.886C820.126 403.972 819.808 404.057 819.401 404.142C818.994 404.237 818.478 404.284 817.853 404.284C816.906 404.284 815.978 404.08 815.069 403.673C814.169 403.266 813.421 402.646 812.825 401.812C812.237 400.979 811.944 399.928 811.944 398.659V376.955ZM824.998 404V382.182H828.35V404H824.998ZM826.702 378.545C826.049 378.545 825.486 378.323 825.012 377.878C824.548 377.433 824.316 376.898 824.316 376.273C824.316 375.648 824.548 375.113 825.012 374.668C825.486 374.223 826.049 374 826.702 374C827.356 374 827.915 374.223 828.379 374.668C828.852 375.113 829.089 375.648 829.089 376.273C829.089 376.898 828.852 377.433 828.379 377.878C827.915 378.323 827.356 378.545 826.702 378.545ZM852.331 382.182L844.263 404H840.854L832.786 382.182H836.422L842.445 399.568H842.672L848.695 382.182H852.331ZM865.122 404.455C863.02 404.455 861.206 403.991 859.682 403.062C858.167 402.125 856.997 400.818 856.173 399.142C855.359 397.456 854.952 395.496 854.952 393.261C854.952 391.027 855.359 389.057 856.173 387.352C856.997 385.638 858.143 384.303 859.611 383.347C861.088 382.381 862.812 381.898 864.781 381.898C865.918 381.898 867.04 382.087 868.148 382.466C869.256 382.845 870.264 383.46 871.173 384.312C872.082 385.155 872.807 386.273 873.347 387.665C873.886 389.057 874.156 390.771 874.156 392.807V394.227H857.338V391.33H870.747C870.747 390.098 870.501 389 870.009 388.034C869.526 387.068 868.834 386.306 867.935 385.747C867.045 385.188 865.993 384.909 864.781 384.909C863.446 384.909 862.291 385.241 861.315 385.903C860.349 386.557 859.606 387.409 859.085 388.46C858.564 389.511 858.304 390.638 858.304 391.841V393.773C858.304 395.42 858.588 396.817 859.156 397.963C859.734 399.099 860.534 399.966 861.557 400.562C862.58 401.15 863.768 401.443 865.122 401.443C866.003 401.443 866.798 401.32 867.509 401.074C868.228 400.818 868.848 400.439 869.369 399.938C869.89 399.426 870.293 398.792 870.577 398.034L873.815 398.943C873.474 400.042 872.902 401.008 872.097 401.841C871.292 402.665 870.297 403.309 869.114 403.773C867.93 404.227 866.599 404.455 865.122 404.455ZM896.926 404.511C895.544 404.511 894.289 404.251 893.162 403.73C892.035 403.2 891.14 402.438 890.477 401.443C889.814 400.439 889.483 399.227 889.483 397.807C889.483 396.557 889.729 395.544 890.222 394.767C890.714 393.981 891.372 393.366 892.196 392.92C893.02 392.475 893.929 392.144 894.923 391.926C895.927 391.699 896.936 391.519 897.949 391.386C899.275 391.216 900.349 391.088 901.173 391.003C902.007 390.908 902.613 390.752 902.991 390.534C903.38 390.316 903.574 389.937 903.574 389.398V389.284C903.574 387.883 903.19 386.794 902.423 386.017C901.666 385.241 900.515 384.852 898.972 384.852C897.371 384.852 896.116 385.203 895.207 385.903C894.298 386.604 893.659 387.352 893.29 388.148L890.108 387.011C890.676 385.686 891.434 384.653 892.381 383.915C893.337 383.167 894.379 382.646 895.506 382.352C896.642 382.049 897.759 381.898 898.858 381.898C899.559 381.898 900.364 381.983 901.273 382.153C902.191 382.314 903.077 382.651 903.929 383.162C904.791 383.673 905.506 384.445 906.074 385.477C906.642 386.509 906.926 387.892 906.926 389.625V404H903.574V401.045H903.403C903.176 401.519 902.797 402.026 902.267 402.565C901.737 403.105 901.031 403.564 900.151 403.943C899.27 404.322 898.195 404.511 896.926 404.511ZM897.438 401.5C898.763 401.5 899.881 401.24 900.79 400.719C901.708 400.198 902.4 399.526 902.864 398.702C903.337 397.878 903.574 397.011 903.574 396.102V393.034C903.432 393.205 903.119 393.361 902.636 393.503C902.163 393.635 901.614 393.754 900.989 393.858C900.373 393.953 899.772 394.038 899.185 394.114C898.607 394.18 898.138 394.237 897.778 394.284C896.907 394.398 896.093 394.582 895.335 394.838C894.587 395.084 893.981 395.458 893.517 395.96C893.063 396.453 892.835 397.125 892.835 397.977C892.835 399.142 893.266 400.023 894.128 400.619C894.999 401.206 896.102 401.5 897.438 401.5ZM916.397 390.875V404H913.045V382.182H916.283V385.591H916.567C917.079 384.483 917.855 383.593 918.897 382.92C919.939 382.239 921.283 381.898 922.931 381.898C924.408 381.898 925.701 382.201 926.809 382.807C927.917 383.403 928.779 384.312 929.394 385.534C930.01 386.746 930.317 388.28 930.317 390.136V404H926.965V390.364C926.965 388.65 926.52 387.314 925.63 386.358C924.74 385.392 923.518 384.909 921.965 384.909C920.895 384.909 919.939 385.141 919.096 385.605C918.263 386.069 917.604 386.746 917.121 387.636C916.638 388.527 916.397 389.606 916.397 390.875ZM944.682 404.455C942.864 404.455 941.259 403.995 939.866 403.077C938.474 402.149 937.385 400.842 936.599 399.156C935.813 397.461 935.42 395.458 935.42 393.148C935.42 390.856 935.813 388.867 936.599 387.182C937.385 385.496 938.479 384.194 939.881 383.276C941.282 382.357 942.902 381.898 944.739 381.898C946.159 381.898 947.281 382.134 948.105 382.608C948.938 383.072 949.573 383.602 950.009 384.199C950.454 384.786 950.799 385.269 951.045 385.648H951.33V374.909H954.682V404H951.443V400.648H951.045C950.799 401.045 950.449 401.547 949.994 402.153C949.54 402.75 948.891 403.285 948.048 403.759C947.205 404.223 946.083 404.455 944.682 404.455ZM945.136 401.443C946.481 401.443 947.617 401.093 948.545 400.392C949.473 399.682 950.179 398.702 950.662 397.452C951.145 396.192 951.386 394.739 951.386 393.091C951.386 391.462 951.15 390.037 950.676 388.815C950.203 387.584 949.502 386.628 948.574 385.946C947.646 385.255 946.5 384.909 945.136 384.909C943.716 384.909 942.532 385.274 941.585 386.003C940.648 386.723 939.942 387.703 939.469 388.943C939.005 390.174 938.773 391.557 938.773 393.091C938.773 394.644 939.009 396.055 939.483 397.324C939.966 398.583 940.676 399.587 941.614 400.335C942.561 401.074 943.735 401.443 945.136 401.443ZM978.957 404.511C977.575 404.511 976.32 404.251 975.193 403.73C974.066 403.2 973.171 402.438 972.509 401.443C971.846 400.439 971.514 399.227 971.514 397.807C971.514 396.557 971.76 395.544 972.253 394.767C972.745 393.981 973.403 393.366 974.227 392.92C975.051 392.475 975.96 392.144 976.955 391.926C977.958 391.699 978.967 391.519 979.98 391.386C981.306 391.216 982.381 391.088 983.205 391.003C984.038 390.908 984.644 390.752 985.023 390.534C985.411 390.316 985.605 389.937 985.605 389.398V389.284C985.605 387.883 985.222 386.794 984.455 386.017C983.697 385.241 982.546 384.852 981.003 384.852C979.402 384.852 978.148 385.203 977.239 385.903C976.33 386.604 975.69 387.352 975.321 388.148L972.139 387.011C972.707 385.686 973.465 384.653 974.412 383.915C975.368 383.167 976.41 382.646 977.537 382.352C978.673 382.049 979.791 381.898 980.889 381.898C981.59 381.898 982.395 381.983 983.304 382.153C984.223 382.314 985.108 382.651 985.96 383.162C986.822 383.673 987.537 384.445 988.105 385.477C988.673 386.509 988.957 387.892 988.957 389.625V404H985.605V401.045H985.435C985.207 401.519 984.829 402.026 984.298 402.565C983.768 403.105 983.063 403.564 982.182 403.943C981.301 404.322 980.226 404.511 978.957 404.511ZM979.469 401.5C980.795 401.5 981.912 401.24 982.821 400.719C983.74 400.198 984.431 399.526 984.895 398.702C985.368 397.878 985.605 397.011 985.605 396.102V393.034C985.463 393.205 985.151 393.361 984.668 393.503C984.194 393.635 983.645 393.754 983.02 393.858C982.404 393.953 981.803 394.038 981.216 394.114C980.638 394.18 980.17 394.237 979.81 394.284C978.938 394.398 978.124 394.582 977.366 394.838C976.618 395.084 976.012 395.458 975.548 395.96C975.094 396.453 974.866 397.125 974.866 397.977C974.866 399.142 975.297 400.023 976.159 400.619C977.03 401.206 978.134 401.5 979.469 401.5ZM998.428 390.875V404H995.076V382.182H998.315V385.591H998.599C999.11 384.483 999.887 383.593 1000.93 382.92C1001.97 382.239 1003.31 381.898 1004.96 381.898C1006.44 381.898 1007.73 382.201 1008.84 382.807C1009.95 383.403 1010.81 384.312 1011.43 385.534C1012.04 386.746 1012.35 388.28 1012.35 390.136V404H1009V390.364C1009 388.65 1008.55 387.314 1007.66 386.358C1006.77 385.392 1005.55 384.909 1004 384.909C1002.93 384.909 1001.97 385.141 1001.13 385.605C1000.29 386.069 999.636 386.746 999.153 387.636C998.67 388.527 998.428 389.606 998.428 390.875ZM1018.47 404V382.182H1021.83V404H1018.47ZM1020.18 378.545C1019.53 378.545 1018.96 378.323 1018.49 377.878C1018.02 377.433 1017.79 376.898 1017.79 376.273C1017.79 375.648 1018.02 375.113 1018.49 374.668C1018.96 374.223 1019.53 374 1020.18 374C1020.83 374 1021.39 374.223 1021.86 374.668C1022.33 375.113 1022.57 375.648 1022.57 376.273C1022.57 376.898 1022.33 377.433 1021.86 377.878C1021.39 378.323 1020.83 378.545 1020.18 378.545ZM1027.97 404V382.182H1031.21V385.591H1031.49C1031.94 384.426 1032.68 383.522 1033.69 382.878C1034.7 382.224 1035.92 381.898 1037.34 381.898C1038.78 381.898 1039.98 382.224 1040.94 382.878C1041.9 383.522 1042.65 384.426 1043.19 385.591H1043.42C1043.98 384.464 1044.82 383.569 1045.94 382.906C1047.05 382.234 1048.39 381.898 1049.96 381.898C1051.91 381.898 1053.5 382.509 1054.74 383.73C1055.98 384.942 1056.6 386.831 1056.6 389.398V404H1053.25V389.398C1053.25 387.788 1052.81 386.637 1051.93 385.946C1051.05 385.255 1050.01 384.909 1048.82 384.909C1047.28 384.909 1046.1 385.373 1045.25 386.301C1044.41 387.22 1043.99 388.384 1043.99 389.795V404H1040.58V389.057C1040.58 387.816 1040.18 386.817 1039.37 386.06C1038.57 385.293 1037.53 384.909 1036.26 384.909C1035.39 384.909 1034.58 385.141 1033.82 385.605C1033.07 386.069 1032.46 386.713 1032 387.537C1031.55 388.351 1031.32 389.294 1031.32 390.364V404H1027.97ZM1069.15 404.511C1067.77 404.511 1066.52 404.251 1065.39 403.73C1064.26 403.2 1063.37 402.438 1062.7 401.443C1062.04 400.439 1061.71 399.227 1061.71 397.807C1061.71 396.557 1061.96 395.544 1062.45 394.767C1062.94 393.981 1063.6 393.366 1064.42 392.92C1065.25 392.475 1066.16 392.144 1067.15 391.926C1068.15 391.699 1069.16 391.519 1070.18 391.386C1071.5 391.216 1072.58 391.088 1073.4 391.003C1074.23 390.908 1074.84 390.752 1075.22 390.534C1075.61 390.316 1075.8 389.937 1075.8 389.398V389.284C1075.8 387.883 1075.42 386.794 1074.65 386.017C1073.89 385.241 1072.74 384.852 1071.2 384.852C1069.6 384.852 1068.34 385.203 1067.43 385.903C1066.52 386.604 1065.89 387.352 1065.52 388.148L1062.33 387.011C1062.9 385.686 1063.66 384.653 1064.61 383.915C1065.56 383.167 1066.61 382.646 1067.73 382.352C1068.87 382.049 1069.99 381.898 1071.08 381.898C1071.79 381.898 1072.59 381.983 1073.5 382.153C1074.42 382.314 1075.3 382.651 1076.16 383.162C1077.02 383.673 1077.73 384.445 1078.3 385.477C1078.87 386.509 1079.15 387.892 1079.15 389.625V404H1075.8V401.045H1075.63C1075.4 401.519 1075.02 402.026 1074.49 402.565C1073.96 403.105 1073.26 403.564 1072.38 403.943C1071.5 404.322 1070.42 404.511 1069.15 404.511ZM1069.66 401.5C1070.99 401.5 1072.11 401.24 1073.02 400.719C1073.93 400.198 1074.63 399.526 1075.09 398.702C1075.56 397.878 1075.8 397.011 1075.8 396.102V393.034C1075.66 393.205 1075.35 393.361 1074.86 393.503C1074.39 393.635 1073.84 393.754 1073.22 393.858C1072.6 393.953 1072 394.038 1071.41 394.114C1070.83 394.18 1070.36 394.237 1070 394.284C1069.13 394.398 1068.32 394.582 1067.56 394.838C1066.81 395.084 1066.21 395.458 1065.74 395.96C1065.29 396.453 1065.06 397.125 1065.06 397.977C1065.06 399.142 1065.49 400.023 1066.35 400.619C1067.23 401.206 1068.33 401.5 1069.66 401.5ZM1094.76 382.182V385.023H1083.45V382.182H1094.76ZM1086.75 376.955H1090.1V397.75C1090.1 398.697 1090.24 399.407 1090.51 399.881C1090.8 400.345 1091.16 400.657 1091.59 400.818C1092.04 400.97 1092.51 401.045 1093 401.045C1093.37 401.045 1093.67 401.027 1093.91 400.989C1094.14 400.941 1094.33 400.903 1094.48 400.875L1095.16 403.886C1094.93 403.972 1094.61 404.057 1094.21 404.142C1093.8 404.237 1093.28 404.284 1092.66 404.284C1091.71 404.284 1090.78 404.08 1089.87 403.673C1088.97 403.266 1088.23 402.646 1087.63 401.812C1087.04 400.979 1086.75 399.928 1086.75 398.659V376.955ZM1108.72 404.455C1106.61 404.455 1104.8 403.991 1103.28 403.062C1101.76 402.125 1100.59 400.818 1099.77 399.142C1098.95 397.456 1098.55 395.496 1098.55 393.261C1098.55 391.027 1098.95 389.057 1099.77 387.352C1100.59 385.638 1101.74 384.303 1103.2 383.347C1104.68 382.381 1106.41 381.898 1108.38 381.898C1109.51 381.898 1110.63 382.087 1111.74 382.466C1112.85 382.845 1113.86 383.46 1114.77 384.312C1115.68 385.155 1116.4 386.273 1116.94 387.665C1117.48 389.057 1117.75 390.771 1117.75 392.807V394.227H1100.93V391.33H1114.34C1114.34 390.098 1114.09 389 1113.6 388.034C1113.12 387.068 1112.43 386.306 1111.53 385.747C1110.64 385.188 1109.59 384.909 1108.38 384.909C1107.04 384.909 1105.88 385.241 1104.91 385.903C1103.94 386.557 1103.2 387.409 1102.68 388.46C1102.16 389.511 1101.9 390.638 1101.9 391.841V393.773C1101.9 395.42 1102.18 396.817 1102.75 397.963C1103.33 399.099 1104.13 399.966 1105.15 400.562C1106.17 401.15 1107.36 401.443 1108.72 401.443C1109.6 401.443 1110.39 401.32 1111.1 401.074C1111.82 400.818 1112.44 400.439 1112.96 399.938C1113.48 399.426 1113.89 398.792 1114.17 398.034L1117.41 398.943C1117.07 400.042 1116.5 401.008 1115.69 401.841C1114.89 402.665 1113.89 403.309 1112.71 403.773C1111.52 404.227 1110.19 404.455 1108.72 404.455ZM1131.09 404.455C1129.27 404.455 1127.66 403.995 1126.27 403.077C1124.88 402.149 1123.79 400.842 1123.01 399.156C1122.22 397.461 1121.83 395.458 1121.83 393.148C1121.83 390.856 1122.22 388.867 1123.01 387.182C1123.79 385.496 1124.89 384.194 1126.29 383.276C1127.69 382.357 1129.31 381.898 1131.14 381.898C1132.57 381.898 1133.69 382.134 1134.51 382.608C1135.34 383.072 1135.98 383.602 1136.41 384.199C1136.86 384.786 1137.21 385.269 1137.45 385.648H1137.74V374.909H1141.09V404H1137.85V400.648H1137.45C1137.21 401.045 1136.86 401.547 1136.4 402.153C1135.95 402.75 1135.3 403.285 1134.45 403.759C1133.61 404.223 1132.49 404.455 1131.09 404.455ZM1131.54 401.443C1132.89 401.443 1134.02 401.093 1134.95 400.392C1135.88 399.682 1136.59 398.702 1137.07 397.452C1137.55 396.192 1137.79 394.739 1137.79 393.091C1137.79 391.462 1137.56 390.037 1137.08 388.815C1136.61 387.584 1135.91 386.628 1134.98 385.946C1134.05 385.255 1132.91 384.909 1131.54 384.909C1130.12 384.909 1128.94 385.274 1127.99 386.003C1127.05 386.723 1126.35 387.703 1125.88 388.943C1125.41 390.174 1125.18 391.557 1125.18 393.091C1125.18 394.644 1125.42 396.055 1125.89 397.324C1126.37 398.583 1127.08 399.587 1128.02 400.335C1128.97 401.074 1130.14 401.443 1131.54 401.443ZM1167.18 404.455C1165.36 404.455 1163.76 403.995 1162.37 403.077C1160.97 402.149 1159.89 400.842 1159.1 399.156C1158.31 397.461 1157.92 395.458 1157.92 393.148C1157.92 390.856 1158.31 388.867 1159.1 387.182C1159.89 385.496 1160.98 384.194 1162.38 383.276C1163.78 382.357 1165.4 381.898 1167.24 381.898C1168.66 381.898 1169.78 382.134 1170.61 382.608C1171.44 383.072 1172.07 383.602 1172.51 384.199C1172.95 384.786 1173.3 385.269 1173.55 385.648H1173.83V374.909H1177.18V404H1173.94V400.648H1173.55C1173.3 401.045 1172.95 401.547 1172.49 402.153C1172.04 402.75 1171.39 403.285 1170.55 403.759C1169.71 404.223 1168.58 404.455 1167.18 404.455ZM1167.64 401.443C1168.98 401.443 1170.12 401.093 1171.05 400.392C1171.97 399.682 1172.68 398.702 1173.16 397.452C1173.64 396.192 1173.89 394.739 1173.89 393.091C1173.89 391.462 1173.65 390.037 1173.18 388.815C1172.7 387.584 1172 386.628 1171.07 385.946C1170.15 385.255 1169 384.909 1167.64 384.909C1166.22 384.909 1165.03 385.274 1164.09 386.003C1163.15 386.723 1162.44 387.703 1161.97 388.943C1161.5 390.174 1161.27 391.557 1161.27 393.091C1161.27 394.644 1161.51 396.055 1161.98 397.324C1162.47 398.583 1163.18 399.587 1164.11 400.335C1165.06 401.074 1166.23 401.443 1167.64 401.443ZM1192.93 404.455C1190.83 404.455 1189.02 403.991 1187.49 403.062C1185.98 402.125 1184.81 400.818 1183.99 399.142C1183.17 397.456 1182.76 395.496 1182.76 393.261C1182.76 391.027 1183.17 389.057 1183.99 387.352C1184.81 385.638 1185.96 384.303 1187.42 383.347C1188.9 382.381 1190.62 381.898 1192.59 381.898C1193.73 381.898 1194.85 382.087 1195.96 382.466C1197.07 382.845 1198.08 383.46 1198.99 384.312C1199.89 385.155 1200.62 386.273 1201.16 387.665C1201.7 389.057 1201.97 390.771 1201.97 392.807V394.227H1185.15V391.33H1198.56C1198.56 390.098 1198.31 389 1197.82 388.034C1197.34 387.068 1196.65 386.306 1195.75 385.747C1194.86 385.188 1193.81 384.909 1192.59 384.909C1191.26 384.909 1190.1 385.241 1189.13 385.903C1188.16 386.557 1187.42 387.409 1186.9 388.46C1186.38 389.511 1186.12 390.638 1186.12 391.841V393.773C1186.12 395.42 1186.4 396.817 1186.97 397.963C1187.55 399.099 1188.35 399.966 1189.37 400.562C1190.39 401.15 1191.58 401.443 1192.93 401.443C1193.82 401.443 1194.61 401.32 1195.32 401.074C1196.04 400.818 1196.66 400.439 1197.18 399.938C1197.7 399.426 1198.11 398.792 1198.39 398.034L1201.63 398.943C1201.29 400.042 1200.71 401.008 1199.91 401.841C1199.1 402.665 1198.11 403.309 1196.93 403.773C1195.74 404.227 1194.41 404.455 1192.93 404.455ZM1222.52 387.068L1219.51 387.92C1219.32 387.419 1219.04 386.931 1218.67 386.457C1218.31 385.974 1217.82 385.577 1217.2 385.264C1216.57 384.952 1215.77 384.795 1214.8 384.795C1213.46 384.795 1212.35 385.103 1211.46 385.719C1210.58 386.325 1210.14 387.097 1210.14 388.034C1210.14 388.867 1210.44 389.526 1211.05 390.009C1211.65 390.491 1212.6 390.894 1213.89 391.216L1217.12 392.011C1219.08 392.485 1220.53 393.209 1221.49 394.185C1222.44 395.151 1222.92 396.396 1222.92 397.92C1222.92 399.17 1222.56 400.288 1221.84 401.273C1221.13 402.258 1220.14 403.034 1218.86 403.602C1217.58 404.17 1216.09 404.455 1214.4 404.455C1212.17 404.455 1210.33 403.972 1208.87 403.006C1207.41 402.04 1206.49 400.629 1206.1 398.773L1209.28 397.977C1209.59 399.152 1210.16 400.032 1211 400.619C1211.86 401.206 1212.97 401.5 1214.34 401.5C1215.9 401.5 1217.14 401.169 1218.06 400.506C1218.99 399.833 1219.45 399.028 1219.45 398.091C1219.45 397.333 1219.19 396.699 1218.66 396.188C1218.13 395.667 1217.31 395.278 1216.22 395.023L1212.58 394.17C1210.58 393.697 1209.11 392.963 1208.18 391.969C1207.25 390.965 1206.78 389.71 1206.78 388.205C1206.78 386.973 1207.13 385.884 1207.82 384.938C1208.52 383.991 1209.47 383.247 1210.68 382.707C1211.89 382.168 1213.26 381.898 1214.8 381.898C1216.95 381.898 1218.65 382.371 1219.88 383.318C1221.12 384.265 1222 385.515 1222.52 387.068ZM1231.09 396.045L1231.03 391.898H1231.72L1241.26 382.182H1245.41L1235.24 392.466H1234.96L1231.09 396.045ZM1227.97 404V374.909H1231.32V404H1227.97ZM1241.83 404L1233.31 393.205L1235.69 390.875L1246.09 404H1241.83ZM1259.21 382.182V385.023H1247.91V382.182H1259.21ZM1251.2 376.955H1254.55V397.75C1254.55 398.697 1254.69 399.407 1254.97 399.881C1255.25 400.345 1255.61 400.657 1256.05 400.818C1256.49 400.97 1256.96 401.045 1257.45 401.045C1257.82 401.045 1258.12 401.027 1258.36 400.989C1258.6 400.941 1258.79 400.903 1258.93 400.875L1259.61 403.886C1259.38 403.972 1259.07 404.057 1258.66 404.142C1258.25 404.237 1257.74 404.284 1257.11 404.284C1256.16 404.284 1255.24 404.08 1254.33 403.673C1253.43 403.266 1252.68 402.646 1252.08 401.812C1251.5 400.979 1251.2 399.928 1251.2 398.659V376.955ZM1272.88 404.455C1270.92 404.455 1269.19 403.986 1267.7 403.048C1266.22 402.111 1265.07 400.799 1264.23 399.114C1263.41 397.428 1263 395.458 1263 393.205C1263 390.932 1263.41 388.948 1264.23 387.253C1265.07 385.558 1266.22 384.241 1267.7 383.304C1269.19 382.366 1270.92 381.898 1272.88 381.898C1274.85 381.898 1276.58 382.366 1278.06 383.304C1279.54 384.241 1280.7 385.558 1281.52 387.253C1282.35 388.948 1282.77 390.932 1282.77 393.205C1282.77 395.458 1282.35 397.428 1281.52 399.114C1280.7 400.799 1279.54 402.111 1278.06 403.048C1276.58 403.986 1274.85 404.455 1272.88 404.455ZM1272.88 401.443C1274.38 401.443 1275.61 401.06 1276.58 400.293C1277.54 399.526 1278.26 398.517 1278.72 397.267C1279.19 396.017 1279.42 394.663 1279.42 393.205C1279.42 391.746 1279.19 390.387 1278.72 389.128C1278.26 387.868 1277.54 386.85 1276.58 386.074C1275.61 385.297 1274.38 384.909 1272.88 384.909C1271.39 384.909 1270.16 385.297 1269.19 386.074C1268.23 386.85 1267.51 387.868 1267.05 389.128C1266.58 390.387 1266.35 391.746 1266.35 393.205C1266.35 394.663 1266.58 396.017 1267.05 397.267C1267.51 398.517 1268.23 399.526 1269.19 400.293C1270.16 401.06 1271.39 401.443 1272.88 401.443ZM1287.89 412.182V382.182H1291.13V385.648H1291.52C1291.77 385.269 1292.11 384.786 1292.55 384.199C1292.99 383.602 1293.63 383.072 1294.45 382.608C1295.28 382.134 1296.41 381.898 1297.83 381.898C1299.67 381.898 1301.29 382.357 1302.69 383.276C1304.09 384.194 1305.18 385.496 1305.97 387.182C1306.76 388.867 1307.15 390.856 1307.15 393.148C1307.15 395.458 1306.76 397.461 1305.97 399.156C1305.18 400.842 1304.1 402.149 1302.7 403.077C1301.31 403.995 1299.71 404.455 1297.89 404.455C1296.49 404.455 1295.36 404.223 1294.52 403.759C1293.68 403.285 1293.03 402.75 1292.58 402.153C1292.12 401.547 1291.77 401.045 1291.52 400.648H1291.24V412.182H1287.89ZM1291.18 393.091C1291.18 394.739 1291.43 396.192 1291.91 397.452C1292.39 398.702 1293.1 399.682 1294.02 400.392C1294.95 401.093 1296.09 401.443 1297.43 401.443C1298.84 401.443 1300 401.074 1300.94 400.335C1301.89 399.587 1302.6 398.583 1303.07 397.324C1303.56 396.055 1303.8 394.644 1303.8 393.091C1303.8 391.557 1303.56 390.174 1303.09 388.943C1302.62 387.703 1301.92 386.723 1300.97 386.003C1300.03 385.274 1298.85 384.909 1297.43 384.909C1296.07 384.909 1294.92 385.255 1294 385.946C1293.07 386.628 1292.37 387.584 1291.89 388.815C1291.42 390.037 1291.18 391.462 1291.18 393.091ZM1332.66 404.455C1330.56 404.455 1328.75 403.991 1327.22 403.062C1325.71 402.125 1324.54 400.818 1323.71 399.142C1322.9 397.456 1322.49 395.496 1322.49 393.261C1322.49 391.027 1322.9 389.057 1323.71 387.352C1324.54 385.638 1325.68 384.303 1327.15 383.347C1328.63 382.381 1330.35 381.898 1332.32 381.898C1333.46 381.898 1334.58 382.087 1335.69 382.466C1336.79 382.845 1337.8 383.46 1338.71 384.312C1339.62 385.155 1340.35 386.273 1340.89 387.665C1341.43 389.057 1341.7 390.771 1341.7 392.807V394.227H1324.88V391.33H1338.29C1338.29 390.098 1338.04 389 1337.55 388.034C1337.06 387.068 1336.37 386.306 1335.47 385.747C1334.58 385.188 1333.53 384.909 1332.32 384.909C1330.99 384.909 1329.83 385.241 1328.85 385.903C1327.89 386.557 1327.15 387.409 1326.62 388.46C1326.1 389.511 1325.84 390.638 1325.84 391.841V393.773C1325.84 395.42 1326.13 396.817 1326.7 397.963C1327.27 399.099 1328.07 399.966 1329.1 400.562C1330.12 401.15 1331.31 401.443 1332.66 401.443C1333.54 401.443 1334.34 401.32 1335.05 401.074C1335.77 400.818 1336.39 400.439 1336.91 399.938C1337.43 399.426 1337.83 398.792 1338.12 398.034L1341.35 398.943C1341.01 400.042 1340.44 401.008 1339.64 401.841C1338.83 402.665 1337.84 403.309 1336.65 403.773C1335.47 404.227 1334.14 404.455 1332.66 404.455ZM1350.15 374.909V404H1346.79V374.909H1350.15ZM1365.43 404.455C1363.33 404.455 1361.52 403.991 1359.99 403.062C1358.48 402.125 1357.31 400.818 1356.49 399.142C1355.67 397.456 1355.26 395.496 1355.26 393.261C1355.26 391.027 1355.67 389.057 1356.49 387.352C1357.31 385.638 1358.46 384.303 1359.92 383.347C1361.4 382.381 1363.12 381.898 1365.09 381.898C1366.23 381.898 1367.35 382.087 1368.46 382.466C1369.57 382.845 1370.58 383.46 1371.49 384.312C1372.39 385.155 1373.12 386.273 1373.66 387.665C1374.2 389.057 1374.47 390.771 1374.47 392.807V394.227H1357.65V391.33H1371.06C1371.06 390.098 1370.81 389 1370.32 388.034C1369.84 387.068 1369.15 386.306 1368.25 385.747C1367.36 385.188 1366.31 384.909 1365.09 384.909C1363.76 384.909 1362.6 385.241 1361.63 385.903C1360.66 386.557 1359.92 387.409 1359.4 388.46C1358.88 389.511 1358.62 390.638 1358.62 391.841V393.773C1358.62 395.42 1358.9 396.817 1359.47 397.963C1360.05 399.099 1360.85 399.966 1361.87 400.562C1362.89 401.15 1364.08 401.443 1365.43 401.443C1366.32 401.443 1367.11 401.32 1367.82 401.074C1368.54 400.818 1369.16 400.439 1369.68 399.938C1370.2 399.426 1370.61 398.792 1370.89 398.034L1374.13 398.943C1373.79 400.042 1373.21 401.008 1372.41 401.841C1371.6 402.665 1370.61 403.309 1369.43 403.773C1368.24 404.227 1366.91 404.455 1365.43 404.455ZM1379.57 404V382.182H1382.81V385.591H1383.09C1383.55 384.426 1384.28 383.522 1385.29 382.878C1386.31 382.224 1387.52 381.898 1388.94 381.898C1390.38 381.898 1391.58 382.224 1392.54 382.878C1393.5 383.522 1394.26 384.426 1394.8 385.591H1395.02C1395.58 384.464 1396.42 383.569 1397.54 382.906C1398.65 382.234 1399.99 381.898 1401.56 381.898C1403.51 381.898 1405.1 382.509 1406.34 383.73C1407.58 384.942 1408.2 386.831 1408.2 389.398V404H1404.85V389.398C1404.85 387.788 1404.41 386.637 1403.53 385.946C1402.65 385.255 1401.61 384.909 1400.42 384.909C1398.89 384.909 1397.7 385.373 1396.86 386.301C1396.01 387.22 1395.59 388.384 1395.59 389.795V404H1392.18V389.057C1392.18 387.816 1391.78 386.817 1390.97 386.06C1390.17 385.293 1389.13 384.909 1387.86 384.909C1386.99 384.909 1386.18 385.141 1385.42 385.605C1384.67 386.069 1384.07 386.713 1383.6 387.537C1383.15 388.351 1382.92 389.294 1382.92 390.364V404H1379.57ZM1423.48 404.455C1421.38 404.455 1419.57 403.991 1418.04 403.062C1416.53 402.125 1415.36 400.818 1414.53 399.142C1413.72 397.456 1413.31 395.496 1413.31 393.261C1413.31 391.027 1413.72 389.057 1414.53 387.352C1415.36 385.638 1416.5 384.303 1417.97 383.347C1419.45 382.381 1421.17 381.898 1423.14 381.898C1424.28 381.898 1425.4 382.087 1426.51 382.466C1427.62 382.845 1428.62 383.46 1429.53 384.312C1430.44 385.155 1431.17 386.273 1431.71 387.665C1432.25 389.057 1432.52 390.771 1432.52 392.807V394.227H1415.7V391.33H1429.11C1429.11 390.098 1428.86 389 1428.37 388.034C1427.88 387.068 1427.19 386.306 1426.29 385.747C1425.4 385.188 1424.35 384.909 1423.14 384.909C1421.81 384.909 1420.65 385.241 1419.67 385.903C1418.71 386.557 1417.97 387.409 1417.44 388.46C1416.92 389.511 1416.66 390.638 1416.66 391.841V393.773C1416.66 395.42 1416.95 396.817 1417.52 397.963C1418.09 399.099 1418.89 399.966 1419.92 400.562C1420.94 401.15 1422.13 401.443 1423.48 401.443C1424.36 401.443 1425.16 401.32 1425.87 401.074C1426.59 400.818 1427.21 400.439 1427.73 399.938C1428.25 399.426 1428.65 398.792 1428.94 398.034L1432.17 398.943C1431.83 400.042 1431.26 401.008 1430.46 401.841C1429.65 402.665 1428.66 403.309 1427.47 403.773C1426.29 404.227 1424.96 404.455 1423.48 404.455ZM1440.97 390.875V404H1437.62V382.182H1440.85V385.591H1441.14C1441.65 384.483 1442.43 383.593 1443.47 382.92C1444.51 382.239 1445.85 381.898 1447.5 381.898C1448.98 381.898 1450.27 382.201 1451.38 382.807C1452.49 383.403 1453.35 384.312 1453.96 385.534C1454.58 386.746 1454.89 388.28 1454.89 390.136V404H1451.54V390.364C1451.54 388.65 1451.09 387.314 1450.2 386.358C1449.31 385.392 1448.09 384.909 1446.54 384.909C1445.47 384.909 1444.51 385.141 1443.67 385.605C1442.83 386.069 1442.17 386.746 1441.69 387.636C1441.21 388.527 1440.97 389.606 1440.97 390.875ZM1470.5 382.182V385.023H1459.2V382.182H1470.5ZM1462.49 376.955H1465.84V397.75C1465.84 398.697 1465.98 399.407 1466.25 399.881C1466.54 400.345 1466.9 400.657 1467.33 400.818C1467.78 400.97 1468.25 401.045 1468.74 401.045C1469.11 401.045 1469.41 401.027 1469.65 400.989C1469.89 400.941 1470.08 400.903 1470.22 400.875L1470.9 403.886C1470.67 403.972 1470.36 404.057 1469.95 404.142C1469.54 404.237 1469.02 404.284 1468.4 404.284C1467.45 404.284 1466.52 404.08 1465.62 403.673C1464.72 403.266 1463.97 402.646 1463.37 401.812C1462.78 400.979 1462.49 399.928 1462.49 398.659V376.955ZM1490.61 387.068L1487.6 387.92C1487.41 387.419 1487.13 386.931 1486.76 386.457C1486.4 385.974 1485.91 385.577 1485.28 385.264C1484.66 384.952 1483.86 384.795 1482.88 384.795C1481.55 384.795 1480.43 385.103 1479.54 385.719C1478.66 386.325 1478.22 387.097 1478.22 388.034C1478.22 388.867 1478.53 389.526 1479.13 390.009C1479.74 390.491 1480.68 390.894 1481.97 391.216L1485.21 392.011C1487.16 392.485 1488.62 393.209 1489.57 394.185C1490.53 395.151 1491.01 396.396 1491.01 397.92C1491.01 399.17 1490.65 400.288 1489.93 401.273C1489.22 402.258 1488.22 403.034 1486.94 403.602C1485.67 404.17 1484.18 404.455 1482.48 404.455C1480.26 404.455 1478.42 403.972 1476.96 403.006C1475.5 402.04 1474.58 400.629 1474.19 398.773L1477.37 397.977C1477.67 399.152 1478.25 400.032 1479.09 400.619C1479.94 401.206 1481.05 401.5 1482.43 401.5C1483.99 401.5 1485.23 401.169 1486.15 400.506C1487.08 399.833 1487.54 399.028 1487.54 398.091C1487.54 397.333 1487.28 396.699 1486.75 396.188C1486.21 395.667 1485.4 395.278 1484.3 395.023L1480.67 394.17C1478.67 393.697 1477.2 392.963 1476.26 391.969C1475.33 390.965 1474.87 389.71 1474.87 388.205C1474.87 386.973 1475.22 385.884 1475.91 384.938C1476.61 383.991 1477.56 383.247 1478.76 382.707C1479.97 382.168 1481.35 381.898 1482.88 381.898C1485.04 381.898 1486.74 382.371 1487.97 383.318C1489.21 384.265 1490.09 385.515 1490.61 387.068ZM1498.5 404.227C1497.79 404.227 1497.19 403.976 1496.69 403.474C1496.19 402.973 1495.94 402.371 1495.94 401.67C1495.94 400.97 1496.19 400.368 1496.69 399.866C1497.19 399.365 1497.79 399.114 1498.5 399.114C1499.2 399.114 1499.8 399.365 1500.3 399.866C1500.8 400.368 1501.05 400.97 1501.05 401.67C1501.05 402.134 1500.93 402.561 1500.7 402.949C1500.47 403.337 1500.16 403.65 1499.77 403.886C1499.4 404.114 1498.97 404.227 1498.5 404.227Z" fill="white" fill-opacity="0.8"/>
<g filter="url(#filter1_f_42_69)">
<ellipse cx="1545.5" cy="459.5" rx="386.5" ry="175.5" fill="#FFBA49" fill-opacity="0.4"/>
</g>
<g filter="url(#filter2_f_42_69)">
<ellipse cx="1562" cy="118" rx="165" ry="187" fill="#EF5B5B" fill-opacity="0.4"/>
</g>
</g>
<rect x="0.5" y="0.5" width="1599" height="499" rx="31.5" stroke="#2A2E32"/>
<defs>
<filter id="filter0_f_42_69" x="-264.306" y="242.668" width="2124.39" height="627.11" filterUnits="userSpaceOnUse" color-interpolation-filters="sRGB">
<feFlood flood-opacity="0" result="BackgroundImageFix"/>
<feBlend mode="normal" in="SourceGraphic" in2="BackgroundImageFix" result="shape"/>
<feGaussianBlur stdDeviation="100" result="effect1_foregroundBlur_42_69"/>
</filter>
<filter id="filter1_f_42_69" x="959" y="84" width="1173" height="751" filterUnits="userSpaceOnUse" color-interpolation-filters="sRGB">
<feFlood flood-opacity="0" result="BackgroundImageFix"/>
<feBlend mode="normal" in="SourceGraphic" in2="BackgroundImageFix" result="shape"/>
<feGaussianBlur stdDeviation="100" result="effect1_foregroundBlur_42_69"/>
</filter>
<filter id="filter2_f_42_69" x="1197" y="-269" width="730" height="774" filterUnits="userSpaceOnUse" color-interpolation-filters="sRGB">
<feFlood flood-opacity="0" result="BackgroundImageFix"/>
<feBlend mode="normal" in="SourceGraphic" in2="BackgroundImageFix" result="shape"/>
<feGaussianBlur stdDeviation="100" result="effect1_foregroundBlur_42_69"/>
</filter>
<clipPath id="clip0_42_69">
<rect width="1600" height="500" rx="32" fill="white"/>
</clipPath>
</defs>
</svg>
